# xmcd
#
# Track frame offsets: 
#        150
#        16577
#        30307
#        46390
#        61292
#        77260
#        89907
#        104337
#        119342
#        134720
#
# Disc length: 1976 seconds
#
# Revision: 4
# Processed by: cddbd v1.5.2PL0 Copyright (c) Steve Scherf et al.
# Submitted via: ExactAudioCopy v1.1
#
DISCID=7a07b60a
DTITLE=Mark Chesnutt - Wings
DYEAR=1995
DGENRE=Country
TTITLE0=As The Honky Tonk Turns
TTITLE1=The King Of Broken Hearts
TTITLE2=Trouble
TTITLE3=(I Think) I've Finally Broken Mine
TTITLE4=Wrong Place, Wrong Time
TTITLE5=I May Be A Fool
TTITLE6=It Wouldn't Hurt To Have Wings
TTITLE7=Pride's Not Hard To Swallow
TTITLE8=Settlin' For What They Get
TTITLE9=Strangers
EXTD=
EXTT0=
EXTT1=
EXTT2=
EXTT3=
EXTT4=
EXTT5=
EXTT6=
EXTT7=
EXTT8=
EXTT9=
PLAYORDER=
